<svg xmlns="http://www.w3.org/2000/svg" fill="none" viewBox="0 0 157 30"><path fill="#000" d="M14.766 30C6.292 30 0 23.41 0 15.084V15C0 6.752 6.172 0 15.016 0c5.427 0 8.677 1.82 11.349 4.475l-4.032 4.68c-2.218-2.03-4.479-3.274-7.359-3.274-4.854 0-8.333 4.061-8.333 9.035V15c0 4.974 3.411 9.113 8.333 9.113 3.292 0 5.307-1.322 7.568-3.394l4.02 4.103C23.61 28.012 20.313 30 14.767 30Zm24.895-.687V.31h13.162c3.646 0 6.5 1.049 8.39 2.943 1.605 1.616 2.47 3.893 2.47 6.626v.09c0 4.68-2.511 7.623-6.173 8.992l7.037 10.357H57.14l-6.167-9.287h-4.98v9.282H39.66Zm6.334-14.916h6.416c3.084 0 4.855-1.658 4.855-4.103v-.084c0-2.734-1.891-4.14-4.98-4.14h-6.291v8.327ZM83.724 29.71 73.896.525h6.77l5.964 19.638L93.104.414h5.427l6.459 19.722L110.937.525h6.625l-9.817 29.186h-5.511l-6.5-18.982-6.5 18.982h-5.51Zm46.943-.21V.526h5.838L150 18.363V.525h6.25v28.977h-5.391l-13.942-18.437v18.437h-6.25Z"/></svg>